<?xml version="1.0" encoding="UTF-8" standalone="no"?>
<!-- Generator: Adobe Illustrator 16.0.3, SVG Export Plug-In . SVG Version: 6.00 Build 0)  -->

<svg
   version="1.1"
   id="Capa_1"
   x="0px"
   y="0px"
   width="550"
   height="550"
   viewBox="-66 -214.429 550 550.00001"
   enable-background="new 0 0 540 540"
   xml:space="preserve"
   xmlns="http://www.w3.org/2000/svg"
   xmlns:svg="http://www.w3.org/2000/svg"><defs
   id="defs118" />
<g
   id="g101"
   transform="translate(-57.667,-176.886)">
	<path
   d="m 162.339,295.207 h -33.725 v -16.58 h -0.451 c -7.746,12.934 -19.213,19.4 -34.402,19.4 -11.205,0 -20.021,-3.176 -26.45,-9.531 -6.429,-6.354 -9.644,-14.832 -9.644,-25.435 0,-22.407 13.271,-35.341 39.816,-38.801 l 31.356,-4.173 c 0,-12.633 -6.843,-18.949 -20.528,-18.949 -13.761,0 -26.845,4.099 -39.252,12.294 v -26.845 c 4.963,-2.556 11.748,-4.812 20.359,-6.768 8.609,-1.955 16.449,-2.933 23.518,-2.933 32.936,0 49.403,16.431 49.403,49.291 z m -33.5,-46.922 v -7.783 l -20.979,2.707 c -11.581,1.505 -17.37,6.73 -17.37,15.678 0,4.061 1.41,7.388 4.23,9.982 2.819,2.594 6.635,3.892 11.448,3.892 6.692,0 12.143,-2.313 16.355,-6.938 4.21,-4.623 6.316,-10.469 6.316,-17.538 z"
   id="path95" />
	<path
   d="m 182.979,292.162 v -28.875 c 5.865,3.535 11.711,6.167 17.539,7.895 5.827,1.73 11.336,2.595 16.524,2.595 6.316,0 11.297,-0.864 14.945,-2.595 3.646,-1.729 5.471,-4.36 5.471,-7.895 0,-2.256 -0.829,-4.135 -2.482,-5.64 -1.654,-1.503 -3.778,-2.82 -6.372,-3.948 -2.595,-1.128 -5.434,-2.143 -8.517,-3.045 -3.084,-0.902 -6.054,-1.917 -8.91,-3.045 -4.588,-1.729 -8.629,-3.59 -12.125,-5.583 -3.497,-1.992 -6.43,-4.304 -8.798,-6.937 -2.369,-2.631 -4.174,-5.677 -5.414,-9.136 -1.241,-3.458 -1.861,-7.557 -1.861,-12.294 0,-6.466 1.41,-12.03 4.229,-16.693 2.82,-4.662 6.579,-8.477 11.279,-11.449 4.699,-2.969 10.076,-5.149 16.13,-6.542 6.052,-1.39 12.351,-2.086 18.893,-2.086 5.112,0 10.301,0.395 15.565,1.184 5.263,0.79 10.451,1.937 15.565,3.44 v 27.521 c -4.512,-2.631 -9.344,-4.605 -14.494,-5.922 -5.151,-1.314 -10.208,-1.974 -15.171,-1.974 -2.331,0 -4.53,0.208 -6.598,0.62 -2.069,0.415 -3.892,1.016 -5.471,1.805 -1.579,0.79 -2.82,1.805 -3.723,3.046 -0.902,1.24 -1.354,2.65 -1.354,4.229 0,2.106 0.678,3.911 2.031,5.414 1.354,1.505 3.119,2.802 5.301,3.892 2.18,1.091 4.605,2.069 7.275,2.933 2.668,0.865 5.318,1.748 7.951,2.65 4.738,1.655 9.023,3.459 12.859,5.414 3.834,1.956 7.123,4.249 9.869,6.88 2.744,2.633 4.85,5.715 6.316,9.249 1.466,3.535 2.199,7.746 2.199,12.633 0,6.843 -1.485,12.689 -4.455,17.54 -2.972,4.85 -6.919,8.798 -11.844,11.843 -4.926,3.046 -10.603,5.265 -17.031,6.655 -6.43,1.39 -13.104,2.087 -20.021,2.087 -12.704,-0.001 -24.471,-1.958 -35.3,-5.866 z"
   id="path97" />
	<path
   d="m 475.564,295.207 h -35.529 v -65.871 c 0,-16.768 -6.167,-25.153 -18.498,-25.153 -5.865,0 -10.642,2.52 -14.324,7.557 -3.686,5.039 -5.527,11.318 -5.527,18.836 v 64.63 h -35.643 v -66.548 c 0,-16.316 -6.054,-24.476 -18.16,-24.476 -6.09,0 -10.96,2.407 -14.606,7.219 -3.647,4.813 -5.47,11.355 -5.47,19.626 v 64.179 h -35.643 v -115.5 h 35.643 v 18.047 h 0.451 c 3.683,-6.165 8.854,-11.184 15.509,-15.058 6.654,-3.872 13.93,-5.809 21.825,-5.809 16.316,0 27.482,7.182 33.5,21.543 8.797,-14.362 21.729,-21.543 38.801,-21.543 25.113,0 37.672,15.491 37.672,46.471 v 71.85 z"
   id="path99" />
</g>
<g
   id="g107"
   transform="translate(-57.667,-176.886)">
	<g
   id="g105">
		<path
   d="m 148.642,263.043 c 3.224,0 3.224,-5 0,-5 -3.224,0 -3.224,5 0,5 z"
   id="path103" />
	</g>
</g>
<g
   id="g113"
   transform="translate(-57.667,-176.886)">
	<g
   id="g111">
		<path
   d="m 142.469,263.661 c 3.224,0 3.224,-5 0,-5 -3.224,0 -3.224,5 0,5 z"
   id="path109" />
	</g>
</g>
</svg>
