<?xml version="1.0" encoding="UTF-8" standalone="no"?>
<!-- Uploaded to: SVG Repo, www.svgrepo.com, Generator: SVG Repo Mixer Tools -->

<svg
   width="550"
   height="550"
   viewBox="-156.513 4.399 371.87326 371.87288"
   version="1.1"
   id="svg36"
   sodipodi:docname="java-4-logo-svgrepo-com.svg"
   xmlns:inkscape="http://www.inkscape.org/namespaces/inkscape"
   xmlns:sodipodi="http://sodipodi.sourceforge.net/DTD/sodipodi-0.dtd"
   xmlns="http://www.w3.org/2000/svg"
   xmlns:svg="http://www.w3.org/2000/svg">
  <defs
     id="defs40" />
  <sodipodi:namedview
     id="namedview38"
     pagecolor="#ffffff"
     bordercolor="#000000"
     borderopacity="0.25"
     inkscape:showpageshadow="2"
     inkscape:pageopacity="0.0"
     inkscape:pagecheckerboard="0"
     inkscape:deskcolor="#d1d1d1"
     showgrid="false" />
  <path
     d="m -30.387239,291.32379 c 0,0 -14.178,8.245 10.09,11.035 29.3999997,3.354 44.426,2.873 76.825,-3.259 0,0 8.518,5.341 20.414,9.967 -72.6300003,31.128 -164.376,-1.803 -107.329,-17.743 m -8.875,-40.62 c 0,0 -15.902,11.771 8.384,14.283 31.40599966,3.24 56.208,3.505 99.125,-4.759 0,0 5.937,6.018 15.271,9.309 -87.8150003,25.678 -185.624001,2.025 -122.78,-18.833"
     fill="#5382a1"
     id="path24" />
  <path
     d="m 35.556761,181.79879 c 17.896,20.604 -4.701,39.146 -4.701,39.146 0,0 45.439,-23.458 24.571,-52.833 -19.491,-27.395 -34.438,-41.005 46.478999,-87.934002 0.001,-0.001 -127.012999,31.721002 -66.348999,101.621002"
     fill="#e76f00"
     id="path26" />
  <path
     d="m 131.61576,321.36879 c 0,0 10.492,8.646 -11.555,15.333 -41.922999,12.7 -174.487999,16.535 -211.313999,0.507 -13.238001,-5.76 11.587,-13.752 19.396,-15.429 8.144,-1.766 12.798,-1.437 12.798,-1.437 -14.722,-10.371 -95.157001,20.363 -40.857,29.166 148.084,24.015 269.943999,-10.814 231.531999,-28.14 m -155.184999,-112.752 c 0,0 -67.431,16.016 -23.879,21.832 18.389,2.462 55.0469997,1.905 89.192,-0.956 27.906,-2.354 55.928,-7.358 55.928,-7.358 0,0 -9.84,4.214 -16.959,9.074 -68.475,18.01 -200.756001,9.631 -162.674,-8.79 32.206,-15.568 58.392,-13.802 58.392,-13.802 m 120.963,67.614 c 69.607999,-36.171 37.424999,-70.932 14.959999,-66.248 -5.506,1.146 -7.961,2.139 -7.961,2.139 0,0 2.045,-3.202 5.947,-4.588 44.441,-15.624 78.619,46.081 -14.345999,70.521 0,0 1.079,-0.962 1.4,-1.824"
     fill="#5382a1"
     id="path28" />
  <path
     d="m 55.426761,4.3987885 c 0,0 38.55,38.5619995 -36.563,97.8620015 -60.233,47.567 -13.7350003,74.689 -0.025,105.678 -35.158,-31.723 -60.96,-59.647 -43.65,-85.637 25.40599966,-38.151002 95.792,-56.648002 80.238,-117.9030015"
     fill="#e76f00"
     id="path30" />
  <path
     d="m -16.729239,374.24579 c 66.815,4.277 169.416999,-2.373 171.845999,-33.987 0,0 -4.67,11.984 -55.218999,21.503 -57.027,10.731 -127.364,9.479 -169.081,2.601 0.002,-0.002 8.541,7.067 52.454,9.883"
     fill="#5382a1"
     id="path32" />
</svg>
